<mxfile host="app.diagrams.net" modified="2024-05-22T18:55:24.722Z" agent="Mozilla/5.0 (Windows NT 10.0; Win64; x64) AppleWebKit/537.36 (KHTML, like Gecko) Chrome/124.0.0.0 Safari/537.36" etag="ZWGiIC6Ai5s-Uv8CFPYu" version="24.4.6" type="device">
  <diagram name="Page-1" id="0783ab3e-0a74-02c8-0abd-f7b4e66b4bec">
    <mxGraphModel dx="1118" dy="561" grid="1" gridSize="10" guides="1" tooltips="1" connect="1" arrows="1" fold="1" page="1" pageScale="1" pageWidth="850" pageHeight="1100" background="none" math="0" shadow="0">
      <root>
        <mxCell id="0" />
        <mxCell id="1" parent="0" />
        <mxCell id="1c1d494c118603dd-1" value="Nhập thông tin đợt thanh toán" style="swimlane;html=1;childLayout=stackLayout;startSize=20;rounded=0;shadow=0;comic=0;labelBackgroundColor=none;strokeWidth=1;fontFamily=Verdana;fontSize=12;align=center;" parent="1" vertex="1">
          <mxGeometry x="40" y="20" width="670" height="809" as="geometry" />
        </mxCell>
        <mxCell id="1c1d494c118603dd-2" value="Chủ trọ" style="swimlane;html=1;startSize=20;" parent="1c1d494c118603dd-1" vertex="1">
          <mxGeometry y="20" width="250" height="789" as="geometry" />
        </mxCell>
        <mxCell id="60571a20871a0731-4" value="" style="ellipse;whiteSpace=wrap;html=1;rounded=0;shadow=0;comic=0;labelBackgroundColor=none;strokeWidth=1;fillColor=#000000;fontFamily=Verdana;fontSize=12;align=center;" parent="1c1d494c118603dd-2" vertex="1">
          <mxGeometry x="89" y="30" width="40" height="40" as="geometry" />
        </mxCell>
        <mxCell id="60571a20871a0731-8" value="Cập nhật dữ liệu" style="rounded=1;whiteSpace=wrap;html=1;shadow=0;comic=0;labelBackgroundColor=none;strokeWidth=1;fontFamily=Verdana;fontSize=12;align=center;arcSize=50;" parent="1c1d494c118603dd-2" vertex="1">
          <mxGeometry x="49" y="100" width="120" height="30" as="geometry" />
        </mxCell>
        <mxCell id="KzgaOitOdR7ZRzYqdDrq-1" value="" style="endArrow=classic;html=1;rounded=0;exitX=0.5;exitY=1;exitDx=0;exitDy=0;entryX=0.5;entryY=0;entryDx=0;entryDy=0;" parent="1c1d494c118603dd-2" source="60571a20871a0731-4" target="60571a20871a0731-8" edge="1">
          <mxGeometry width="50" height="50" relative="1" as="geometry">
            <mxPoint x="160" y="111" as="sourcePoint" />
            <mxPoint x="210" y="61" as="targetPoint" />
          </mxGeometry>
        </mxCell>
        <mxCell id="9fMdD4ynOads4X869kwh-2" value="Chọn phòng" style="rounded=1;whiteSpace=wrap;html=1;shadow=0;comic=0;labelBackgroundColor=none;strokeWidth=1;fontFamily=Verdana;fontSize=12;align=center;arcSize=50;" parent="1c1d494c118603dd-2" vertex="1">
          <mxGeometry x="49" y="155" width="120" height="43" as="geometry" />
        </mxCell>
        <mxCell id="mC2oG1FsPQN2Iy6sRFhC-11" value="Nhập dữ liệu phòng" style="rounded=1;whiteSpace=wrap;html=1;shadow=0;comic=0;labelBackgroundColor=none;strokeWidth=1;fontFamily=Verdana;fontSize=12;align=center;arcSize=50;" vertex="1" parent="1c1d494c118603dd-2">
          <mxGeometry x="40" y="280" width="150" height="43" as="geometry" />
        </mxCell>
        <mxCell id="1c1d494c118603dd-28" style="rounded=0;html=1;labelBackgroundColor=none;startArrow=none;startFill=0;startSize=5;endArrow=classicThin;endFill=1;endSize=5;jettySize=auto;orthogonalLoop=1;strokeWidth=1;fontFamily=Verdana;fontSize=12;edgeStyle=orthogonalEdgeStyle;entryX=0.5;entryY=0;entryDx=0;entryDy=0;" parent="1c1d494c118603dd-1" source="60571a20871a0731-8" target="xou5o9W6IZBxpLFCHj1X-1" edge="1">
          <mxGeometry relative="1" as="geometry">
            <mxPoint x="500" y="190" as="targetPoint" />
          </mxGeometry>
        </mxCell>
        <mxCell id="9fMdD4ynOads4X869kwh-1" style="rounded=0;html=1;labelBackgroundColor=none;startArrow=none;startFill=0;startSize=5;endArrow=classicThin;endFill=1;endSize=5;jettySize=auto;orthogonalLoop=1;strokeWidth=1;fontFamily=Verdana;fontSize=12;edgeStyle=orthogonalEdgeStyle;exitX=0.5;exitY=1;exitDx=0;exitDy=0;entryX=1;entryY=0.5;entryDx=0;entryDy=0;" parent="1c1d494c118603dd-1" target="9fMdD4ynOads4X869kwh-2" edge="1">
          <mxGeometry relative="1" as="geometry">
            <mxPoint x="160" y="281" as="targetPoint" />
            <mxPoint x="487.5" y="196" as="sourcePoint" />
          </mxGeometry>
        </mxCell>
        <mxCell id="1c1d494c118603dd-4" value="Hệ thống" style="swimlane;html=1;startSize=20;" parent="1c1d494c118603dd-1" vertex="1">
          <mxGeometry x="250" y="20" width="420" height="789" as="geometry" />
        </mxCell>
        <mxCell id="xou5o9W6IZBxpLFCHj1X-1" value="Chi tiết đợt thanh toán" style="rounded=1;whiteSpace=wrap;html=1;" parent="1c1d494c118603dd-4" vertex="1">
          <mxGeometry x="135" y="155" width="205" height="35" as="geometry" />
        </mxCell>
        <mxCell id="xou5o9W6IZBxpLFCHj1X-57" value="" style="ellipse;html=1;shape=endState;fillColor=#000000;strokeColor=#ff0000;" parent="1c1d494c118603dd-4" vertex="1">
          <mxGeometry x="144.5" y="748" width="30" height="30" as="geometry" />
        </mxCell>
        <mxCell id="KzgaOitOdR7ZRzYqdDrq-2" value="" style="rhombus;whiteSpace=wrap;html=1;" parent="1c1d494c118603dd-4" vertex="1">
          <mxGeometry x="142" y="457" width="49" height="49" as="geometry" />
        </mxCell>
        <mxCell id="KzgaOitOdR7ZRzYqdDrq-3" value="Kiểm tra" style="text;html=1;align=center;verticalAlign=middle;whiteSpace=wrap;rounded=0;" parent="1c1d494c118603dd-4" vertex="1">
          <mxGeometry x="60" y="446" width="60" height="30" as="geometry" />
        </mxCell>
        <mxCell id="KzgaOitOdR7ZRzYqdDrq-8" value="Hợp lệ" style="text;html=1;align=center;verticalAlign=middle;whiteSpace=wrap;rounded=0;" parent="1c1d494c118603dd-4" vertex="1">
          <mxGeometry x="240" y="416" width="60" height="30" as="geometry" />
        </mxCell>
        <mxCell id="KzgaOitOdR7ZRzYqdDrq-9" value="Thông báo thành công" style="rounded=1;whiteSpace=wrap;html=1;" parent="1c1d494c118603dd-4" vertex="1">
          <mxGeometry x="64" y="537" width="205" height="35" as="geometry" />
        </mxCell>
        <mxCell id="KzgaOitOdR7ZRzYqdDrq-7" value="" style="endArrow=classic;html=1;rounded=0;exitX=0.5;exitY=1;exitDx=0;exitDy=0;entryX=0.5;entryY=0;entryDx=0;entryDy=0;" parent="1c1d494c118603dd-4" source="KzgaOitOdR7ZRzYqdDrq-2" target="KzgaOitOdR7ZRzYqdDrq-9" edge="1">
          <mxGeometry width="50" height="50" relative="1" as="geometry">
            <mxPoint x="248" y="237" as="sourcePoint" />
            <mxPoint x="166" y="537" as="targetPoint" />
          </mxGeometry>
        </mxCell>
        <mxCell id="xou5o9W6IZBxpLFCHj1X-56" value="" style="endArrow=classic;html=1;rounded=0;exitX=0.5;exitY=1;exitDx=0;exitDy=0;" parent="1c1d494c118603dd-4" source="KzgaOitOdR7ZRzYqdDrq-9" edge="1">
          <mxGeometry width="50" height="50" relative="1" as="geometry">
            <mxPoint x="215.5" y="842" as="sourcePoint" />
            <mxPoint x="167" y="647" as="targetPoint" />
          </mxGeometry>
        </mxCell>
        <mxCell id="9fMdD4ynOads4X869kwh-5" value="Thông báo lỗi" style="rounded=1;whiteSpace=wrap;html=1;" parent="1c1d494c118603dd-4" vertex="1">
          <mxGeometry x="135" y="337" width="205" height="35" as="geometry" />
        </mxCell>
        <mxCell id="9fMdD4ynOads4X869kwh-4" value="" style="endArrow=classic;html=1;rounded=0;exitX=1;exitY=0.5;exitDx=0;exitDy=0;entryX=0.466;entryY=1.013;entryDx=0;entryDy=0;edgeStyle=orthogonalEdgeStyle;entryPerimeter=0;" parent="1c1d494c118603dd-4" source="KzgaOitOdR7ZRzYqdDrq-2" target="9fMdD4ynOads4X869kwh-5" edge="1">
          <mxGeometry width="50" height="50" relative="1" as="geometry">
            <mxPoint x="-131" y="350" as="sourcePoint" />
            <mxPoint x="151" y="398" as="targetPoint" />
          </mxGeometry>
        </mxCell>
        <mxCell id="htmH82v1D6eKQOx1RKmF-13" value="Chuyển màn hình chi tiết đợt thanh toán" style="rounded=1;whiteSpace=wrap;html=1;" parent="1c1d494c118603dd-4" vertex="1">
          <mxGeometry x="50" y="647" width="219" height="35" as="geometry" />
        </mxCell>
        <mxCell id="htmH82v1D6eKQOx1RKmF-14" value="" style="endArrow=classic;html=1;rounded=0;exitX=0.5;exitY=1;exitDx=0;exitDy=0;entryX=0.5;entryY=0;entryDx=0;entryDy=0;" parent="1c1d494c118603dd-4" source="htmH82v1D6eKQOx1RKmF-13" target="xou5o9W6IZBxpLFCHj1X-57" edge="1">
          <mxGeometry width="50" height="50" relative="1" as="geometry">
            <mxPoint x="177" y="582" as="sourcePoint" />
            <mxPoint x="177" y="657" as="targetPoint" />
          </mxGeometry>
        </mxCell>
        <mxCell id="mC2oG1FsPQN2Iy6sRFhC-7" value="Không hợp lệ" style="text;html=1;align=center;verticalAlign=middle;whiteSpace=wrap;rounded=0;" vertex="1" parent="1c1d494c118603dd-4">
          <mxGeometry x="180" y="496" width="90" height="30" as="geometry" />
        </mxCell>
        <mxCell id="mC2oG1FsPQN2Iy6sRFhC-8" value="Chi tiết thanh toán phòng" style="rounded=1;whiteSpace=wrap;html=1;" vertex="1" parent="1c1d494c118603dd-4">
          <mxGeometry x="135" y="230" width="205" height="35" as="geometry" />
        </mxCell>
        <mxCell id="mC2oG1FsPQN2Iy6sRFhC-13" value="" style="endArrow=classic;html=1;rounded=0;exitX=0.75;exitY=0;exitDx=0;exitDy=0;entryX=0.75;entryY=1;entryDx=0;entryDy=0;edgeStyle=orthogonalEdgeStyle;" edge="1" parent="1c1d494c118603dd-4" source="9fMdD4ynOads4X869kwh-5" target="mC2oG1FsPQN2Iy6sRFhC-8">
          <mxGeometry width="50" height="50" relative="1" as="geometry">
            <mxPoint x="201" y="492" as="sourcePoint" />
            <mxPoint x="241" y="382" as="targetPoint" />
          </mxGeometry>
        </mxCell>
        <mxCell id="mC2oG1FsPQN2Iy6sRFhC-9" style="rounded=0;html=1;labelBackgroundColor=none;startArrow=none;startFill=0;startSize=5;endArrow=classicThin;endFill=1;endSize=5;jettySize=auto;orthogonalLoop=1;strokeWidth=1;fontFamily=Verdana;fontSize=12;edgeStyle=orthogonalEdgeStyle;entryX=0;entryY=0.5;entryDx=0;entryDy=0;exitX=0.5;exitY=1;exitDx=0;exitDy=0;" edge="1" parent="1c1d494c118603dd-1" source="9fMdD4ynOads4X869kwh-2" target="mC2oG1FsPQN2Iy6sRFhC-8">
          <mxGeometry relative="1" as="geometry">
            <mxPoint x="498" y="185" as="targetPoint" />
            <mxPoint x="179" y="145" as="sourcePoint" />
          </mxGeometry>
        </mxCell>
        <mxCell id="9fMdD4ynOads4X869kwh-6" value="" style="endArrow=classic;html=1;rounded=0;exitX=0.5;exitY=1;exitDx=0;exitDy=0;entryX=1;entryY=0.5;entryDx=0;entryDy=0;" parent="1c1d494c118603dd-1" source="mC2oG1FsPQN2Iy6sRFhC-8" edge="1" target="mC2oG1FsPQN2Iy6sRFhC-11">
          <mxGeometry width="50" height="50" relative="1" as="geometry">
            <mxPoint x="540.55" y="361.58500000000004" as="sourcePoint" />
            <mxPoint x="490" y="330" as="targetPoint" />
            <Array as="points">
              <mxPoint x="488" y="322" />
            </Array>
          </mxGeometry>
        </mxCell>
        <mxCell id="mC2oG1FsPQN2Iy6sRFhC-12" value="" style="endArrow=classic;html=1;rounded=0;exitX=0.5;exitY=1;exitDx=0;exitDy=0;entryX=0;entryY=0.5;entryDx=0;entryDy=0;edgeStyle=orthogonalEdgeStyle;" edge="1" parent="1c1d494c118603dd-1" source="mC2oG1FsPQN2Iy6sRFhC-11" target="KzgaOitOdR7ZRzYqdDrq-2">
          <mxGeometry width="50" height="50" relative="1" as="geometry">
            <mxPoint x="451" y="512" as="sourcePoint" />
            <mxPoint x="491" y="402" as="targetPoint" />
          </mxGeometry>
        </mxCell>
      </root>
    </mxGraphModel>
  </diagram>
</mxfile>
